<?xml version="1.0" encoding="UTF-8"?>
<svg id="_图层_1" xmlns="http://www.w3.org/2000/svg" version="1.1" viewBox="0 0 4423 2764">
  <!-- Generator: Adobe Illustrator 29.1.0, SVG Export Plug-In . SVG Version: 2.1.0 Build 142)  -->
  <defs>
    <style>
      .st0 {
        fill: #231815;
      }
    </style>
  </defs>
  <polygon class="st0" points="3213.2 1410.8 3200.3 1390.4 3183.9 1372.3 3169.4 1359.2 3158.8 1351 3173.4 1379.9 3185.3 1398.6 3203.1 1420.9 3210.4 1429.3 3215.6 1431.6 3215.6 1421.3 3214.4 1415.3 3213.2 1410.8"/>
  <path class="st0" d="M0,0v2764h4423V0H0ZM3312.7,1598.5l-7.9,7.9-8.2,10.1s-6.6,4.1-10.9,4.9c-4.3.9-14.6-1.8-14.6-1.8,0,0-7.7-4.4-7.7-16.1,1.9-3,2.4,4.2,2.4,4.2l3.2,5.8,4.2,4s7.4,2.5,20.9-4.8c15.8-11.9,21.5-35.7,20.2-39.5.2-7.4-1.1-15.1-12.7-33.4,0,0-1.8,3.9-6.3,11.1s-17.1,14.1-19.1,14.8-5.3.7-5.3.7c0,0-2.5,19.2-15.2,29.6,0,0-10.6,13.7-27.7,18.5,0,0,2,24.5,13.1,25.2,1.8,2.3.9,3.7-1.8,3.7s-15.4-11.8-19.6-27.4c0,0-7.4-.9-8.8-4.2l-.3-2.9,1.5-.2,4.7,3.3s-1.7-22.2-.2-27.5l-12.7,14.5.2,7.5,4.3,26.9s1.1,2.6,8.5,2.9c2.5,3.2-3.4,3.1-3.4,3.1l-4.8-1.3,1.8,14.9,1.9,21.8,7.6,21.7,15.1,43.1s8.5,22.4,10.2,35.8c2.1,12,.8,39.2.8,39.2,0,0-3.7,12.2-7.2,18.8-3.9,6.3-19.7,16-19.7,16l13.1,46.8s3.1,17.5,2.9,22.9c0,0,27.6,10.5,43.2,27.6,0,0-2.9,6.4-5.8,9.4,0,0-.9.9-.4,1.4,17.5,20.3,76.8,85.7-18.7,78,0,0-20.9,21.7-44.4,31.1,0,0-7.1,1.6-8.1,2.2,0,2.2-3.3,7.5-3.3,7.5,0,0-22.5,27.2-41.5,28.9l.2,18.5,3.1,23.9,2.1,12.2,7.2,20.6,6.9,19.6,5.2,14.4,1.3,7.4s-37.1-40.6-64.3,7.8l-11.8-48.5-5.2-23.9-2.3-6.9-4.6-11.3-4.9-11.6-1.7-7.2-.8-4.8v-5.1c-.1,0-57.8-21.5-65.3-26l-1.9,11.2-2.7,13.3-.6,7.2,2.3,11.8,2.4,13.7,1.1,11.1v11.4l4.1,11.2,4.4,18.2,3.2,11.4,2,11.6,2.4,12.2,2,11.9,1.3,9.3s-56.2,0-70.5,42.9l-6.4-54.3-2.8-36.9-5.1-36.8-8-31.9-7-33.1s-61.8,3.8-85.5-13.8c0,0-7-4.3-11.4-20.5l1.1-19.7-6.1-6.7-4.9.8-7.4,4.1-4.2,2.9s-9.8,3.4-15.5-2.4-10.5-3.1-10.5-3.1l-4.5,6.1-3.7,2.3-5.6-3.6-2.5-3.2,1.9-11.1-.6-6.9-6.4-5.1-8.6-4.9-15.4-18.5-15.8-25.6-8.7-19.5-3.4-11.9v-26.1l1.9-10.4,2.3-10.1,1.9-8.4,1.7-11.4v-5.2c-.1,0-2.9-8.4-2.9-8.4l-3.1-6h-3.9c0,0-6.6,4.1-6.6,4.1l-8.4,5.4-10.8,6.7-5.8,2.8-6.3-.3-6.8-1.8-7.3-2.5-9.6-8.1s-7.5-8.5-10.7-19.6c0,0-1.4-3.9,7-16.9l-.6-1.6h-4.6c0,0-9,.5-9,.5h-5.3c0,0-13.9-13.2-13.9-13.2l-1.5-2.5.4-1.7-10.2,3.9s-8.6,4.8-19.9-3.7c-11.3-8.5-16.3-30.1-16.3-30.1l-1.9-21.6,1.2-11.3,2.5-2.1,6.1-2,35.4-8.8,21.9-5.6,17.5-20.3,23.7-22.1,18.3-14.9,31.5-19.4,52.6-26.7,35.1-12.8,1.5-1.5,1.5-9.5s7.2-33.9,40.1-50.9l-2.2-1.1-8.7,1.8-16.4,3.3s-57.9,17.5-77.6,54.7c-1.9,6-1.7,12.4.9,13.3v1.3c.1,0-2.1.3-2.1.3l-2.1-3.4-1.8-4.6.9-7.3,1.1-10,8.7-15.9s13.3-22,43-31.4c0,0-8.6-.4-24.3-4.4s-25.5-17-25.5-17l.7-10.5,5.8-15,4.8-6.2,1.5.7-2.1,3.9-.9,4.8-.3,6.4.6,5.1.7,1.8s4.9,10.7,21,10.4l6.7.9h39.5c0,.1-11.1-4.2-8.2-30.3l2.7-11.4-3.3-5.5-4,1.1-4.2,5.1-4.6,3.8-8.4,3.9-7.2,6.4-6.4,7.2-5.1,4.6-2.3-1.3,10.4-11.3,1.6-2-8.6,4.6-7.5,4.3-7.9,4.7-2.4-1.3,16.9-10.6,9-5.2,3.3-1.1,9-5.1,3.7-2.7-.9-1.9-9.7,3.8-10.7,2.4-6-.8,7.7-4.2-2.7-.9-10.4,4.8-4.3-2.1,11.8-6.9,10.9-2.2,13.6-3,.9-2.6-8.9-5.3-7.8-3-26,1.4-16-.6-2.7-1.8,17.9-.9h21.5c0,0-15.3-6.7-15.3-6.7l-11.2-6.1-8.9-3.4-7.2-2.5,1.6-1.3h4.2l6.4-.5,2.5-2.3-1.2-2.9-10.2-1.2-6.1-1.8,8.1-1.1h13.2c0,.1,2.9,2,2.9,2l8.6,2.1,4.9-.3-9.4-4.1-5.4-3.4-1.7-2.1,13.7,3.9,8.6,4.2,7.3,3.1,5,2.2,1.4-3.3-5.3-3.2-11.1-8.6-10.1-5.1-23.1-14-12.9-4.5-12.6-6-1.3-1.8,11.6,4.1,6.5,1.8,5.8,2.4,22.5,11.9,8.8,3.6-4.3-6,5.5,1.1-.8-5.5,5.7,1.9,2.7-.6-15.5-24.2-5.6-7.8.6-1.5,3.4,3,6.6,9.5,7.8,12.1,5.3,8.7,4.1,6,4.4,3.8,1.8.8-1.1-4.6-5.9-10.5-1.2-5.9-2.7-3.3.6-1.8,2.2.6,1.8,1.6,2.2-1.3-.4-3,3.2,1.8,1.9-.4-2.1-22,1.5-.9,1.4,2.3.8,8.4,3.6,6.2,4,.6h5.5l14.8-2.1,1.9-1.3-.7-27.3,1.1-.5,4.4,17,3.8.2,1.1-19.5,4.4.9-.5,17.5,1.8,7.2,1-9.6,3.6-16.1,6.1-15.8,1-.6,1.5,4.5-1.1,7.6v2.2c0,0,1.5,2.5,1.5,2.5l-1.7,28.2,4.6,10.7,6.9,2.2.9,3,29.2-21.1,23.1-14.7,10.7-7.9,1.8-1.2,24.8-25.6-13.1,4.7-18,8-17.6,9.8s-17.6,9.8-26.7,20.9c-8.4,1.8,1.3-6.2,1.3-6.2l11.7-10.2s48.6-30.2,73.8-36l11.9-8.2-13.9-.2-16.2-.7s-12.7-2.1-18.5-11.8l3.7.3,2.9,3.3,2.3.5h23.9c0,.1,15.6-2.3,15.6-2.3l12.6-5.1,7.7-2.7-3-7.5-.3-18.2-1.1-2.8-1.1-2.3.9-2.7,2-1.5,1.7-2.6,2.2-3,2.6.3,1.3.8,2.2-1.5,2.7.4s18.2,24.6,29.1,28.1c46.6-10.8,68.2,9.4,68.2,9.4,0,0,14.4-3.9,19.8-3.2l8.8-4,2.1.4-.2,2.3,5.2-1.2,2.1.3-.7,2.1-3,3.8v1.5l2.2-.6,1,.6.4,1.1-1.5,2.1-3.7,3.1s-.9,2-.6,8.6c-.3,4-.6,5.1-1,7.1-.4,2.1,6.4,7.5,6.4,7.5l19.1,20.1s7.5,9.4,8.6,10.7c1.1,1.3,4.6,5.7,6.3,7.6,1.7,1.9,25.7,34,27.7,37.5s9.9,18.5,11.1,22.9c1.2,4.4.8,18.8.8,18.8,0,0,3.2,1.3,6.7,2.2,3.5.9,14,5.1,37.6,8.1,23.6,3,27.2,9.6,27.2,9.6,0,0,7.2,6.3,13.3,26,4.2,19.6-1.6,41.5-1.6,41.5v1.7c-.1,0,9.9,15.3,14.5,34.2,4.5,18.9-9.2,39.5-9.2,39.5h0Z"/>
  <path class="st0" d="M2973.5,1383.3l.9-2.8-8.5-21.5v-14.9l2.6-7.5s-27.1,18.9-47.5,44.3c0,0-12.2,16.1-9.3,22.5l-1.7,6.6s-1.4,17.4.9,22.8l6.2-1.1,17.3-6.9,22.3-10.3,15.1-9.8,8.5-6.4.7-8-3.6-1.7-3.8-5.2h0Z"/>
  <path class="st0" d="M3252.5,1512.1l-4.2-7.6-.9-.4s-.9,14.9-12.2,30.3c0,0,1.1,11.5-7.3,32.4l-2,14-.6,13.9,1,16.4.9.9,6.1-1.8s7-.6,20.2-15.8l1.5-4.4,4.8-9.7,2.7-10.8h-3.6c0,.1-5.7.3-5.7.3l-3.8-2.2-1.1-1.6,2.9-.4h3c0,.1,6.7-.7,6.7-.7h2.4c0,0,5.8-10.5-4.8-39.8l-5.8-13h0Z"/>
  <path class="st0" d="M3266.5,1507.8l-4.9-2.7,6.5,18.3,3.8,12.5.7,10.9v11.4l-1.3,4.9s21.8-5.1,22.7-32.9l-15.4-13.5-12.1-8.8h0Z"/>
  <path class="st0" d="M3288.4,1469.6c-6.8-12.4-33.2-15.2-33.2-15.2l-18.2-4.2-9.9-2.5-2.6-.6-.3.4,7.2,8.2,6.5,7.4,4.2,4.9,12.9,10,22.4,16.8,7.8,5.4,7.3,6.9,5.6,5.9.7.5-.3-12.9s.9-13.9-10.1-31.1h0Z"/>
</svg>