<?xml version="1.0" encoding="UTF-8"?>
<svg id="_图层_1" data-name="图层_1" xmlns="http://www.w3.org/2000/svg" version="1.1" viewBox="0 0 1000 1000">
  <!-- Generator: Adobe Illustrator 29.1.0, SVG Export Plug-In . SVG Version: 2.1.0 Build 142)  -->
  <defs>
    <style>.st0 {
  fill: #fff;
}
</style>
  </defs>
  <path class="st0" d="M617.6,639.3c3.5,2,7.5,3,12.1,3s8.6-1,12.1-3c3.5-2,6.2-4.8,8.1-8.5s2.9-7.9,2.9-12.7v-2.1c0-4.5-1-8.4-2.9-11.8s-4.6-6-8.1-7.8c-3.5-1.9-7.5-2.8-12.1-2.8s-8.6.9-12.1,2.8c-3.5,1.9-6.2,4.5-8.1,7.9-1.9,3.4-2.9,7.4-2.9,11.9v2.2c0,4.7,1,8.8,2.9,12.5,1.9,3.6,4.6,6.4,8.1,8.4Z"></path>
  <path class="st0" d="M644.1,684.3c-4.1-2-8.9-3-14.4-3s-10.3,1-14.4,3c-4.1,2-7.3,4.8-9.6,8.5-2.3,3.7-3.4,7.9-3.4,12.7v2.2c0,5.2,1.1,9.7,3.4,13.7,2.3,4,5.5,7,9.7,9.2,4.1,2.1,8.9,3.2,14.3,3.2s10.1-1.1,14.3-3.3c4.1-2.2,7.4-5.3,9.7-9.3,2.3-4,3.4-8.6,3.4-13.8v-2.1c0-4.8-1.1-9-3.4-12.6-2.3-3.6-5.5-6.4-9.6-8.4Z"></path>
  <path class="st0" d="M612.4,414.7c8.1,0,14.1-2.8,17.9-8.3,3.8-5.5,5.7-13.5,5.7-23.8v-76.3c0-10.4-1.9-18.3-5.7-23.8-3.8-5.5-9.8-8.3-17.9-8.3s-14.1,2.8-17.9,8.3c-3.8,5.5-5.7,13.5-5.7,23.8v76.3c0,10.4,1.9,18.3,5.7,23.8,3.8,5.5,9.8,8.3,17.9,8.3Z"></path>
  <path class="st0" d="M500,62c-241.9,0-438,196.1-438,438s196.1,438,438,438,438-196.1,438-438S741.9,62,500,62ZM391.6,279.3c-3.7-3.1-9-4.7-15.8-4.7s-12,2.2-16.1,6.5c-4.1,4.3-6.6,10.5-7.5,18.5h0c0,.1-41.2.1-41.2.1h0c.9-13.4,4.1-24.9,9.6-34.4,5.5-9.6,13-16.9,22.3-21.9,9.4-5,20.2-7.5,32.5-7.5s24.6,2.2,34.1,6.5c9.4,4.3,16.6,10.7,21.5,19,4.9,8.3,7.4,18.3,7.4,30h0c0,9.8-1.7,19.4-5.1,28.9s-8.1,18.1-14.1,25.9l-52.4,66.2h72.8v38.7h-126v-36.2l73.1-96.1c3.3-4.3,5.9-8.7,7.7-13.3,1.8-4.5,2.7-8.8,2.7-12.7v-.3c0-5.8-1.9-10.2-5.6-13.3ZM456.8,737.5h-16.7v32.8h-40.1v-32.8h-86v-36.9l65.6-143.3h45.4l-63.9,141.5h38.8v-53.9h40.1v53.9h16.7v38.7ZM548.7,296c0-19.1,5.4-34,16.3-44.6,10.9-10.6,26.7-15.9,47.4-15.9s36.6,5.3,47.5,15.8,16.3,25.4,16.3,44.7v96.8c0,19.1-5.4,34-16.3,44.6-10.9,10.6-26.7,15.9-47.4,15.9s-36.6-5.3-47.5-16-16.3-25.5-16.3-44.5v-96.8ZM697.3,713.2c0,11.8-2.8,22.2-8.3,31.1s-13.5,15.8-23.7,20.7c-10.2,4.9-22,7.3-35.5,7.3s-25.3-2.4-35.5-7.3c-10.2-4.9-18.1-11.8-23.7-20.7s-8.3-19.3-8.3-31.1v-3.5c0-10.6,2.9-20.7,8.8-30s13.7-16.5,23.4-21.2c-8.4-4.1-15.1-10-20.2-17.6-5.1-7.6-7.6-15.7-7.6-24.3v-5.6c0-11.1,2.6-20.9,7.8-29.4,5.2-8.4,12.6-15,22.1-19.6,9.5-4.6,20.6-7,33.2-7s23.7,2.3,33.2,7c9.5,4.6,16.9,11.2,22.1,19.6,5.2,8.4,7.8,18.2,7.8,29.4v5.6c0,8.8-2.6,17-7.8,24.5-5.2,7.6-12,13.4-20.5,17.4,9.9,4.9,17.8,12,23.7,21.3,6,9.3,8.9,19.3,8.9,30v3.5Z"></path>
</svg>