<?xml version="1.0" encoding="UTF-8"?>
<svg id="_图层_1" xmlns="http://www.w3.org/2000/svg" version="1.1" viewBox="0 0 1000 1000">
  <!-- Generator: Adobe Illustrator 29.1.0, SVG Export Plug-In . SVG Version: 2.1.0 Build 142)  -->
  <defs>
    <style>.st0 {
  fill: #fff;
}
</style>
  </defs>
  <path class="st0" d="M500,62c-241.9,0-438,196.1-438,438s196.1,438,438,438,438-196.1,438-438S741.9,62,500,62ZM750.6,512.9l-19.8,236.8h-461.7l-19.8-236.8c-32-3.8-56.8-31.1-56.8-64s28.9-64.5,64.5-64.5,64.5,28.9,64.5,64.5-6,30.9-15.8,42.3l65.8,60.2,84.4-177.4-47.5-55.8,91.9-107.9,91.9,107.9-49.7,58.4,85.1,175.8,66.7-61.2c-9.9-11.3-15.9-26.1-15.9-42.3,0-35.6,28.9-64.5,64.5-64.5s64.5,28.9,64.5,64.5-24.9,60.2-56.8,64Z"></path>
</svg>