<svg xmlns="http://www.w3.org/2000/svg" id="_图层_1" version="1.1" viewBox="0 0 1000 1000"><path d="M500 62C258.1 62 62 258.1 62 500s196.1 438 438 438 438-196.1 438-438S741.9 62 500 62m250.6 450.9-19.8 236.8H269.1l-19.8-236.8c-32-3.8-56.8-31.1-56.8-64s28.9-64.5 64.5-64.5 64.5 28.9 64.5 64.5-6 30.9-15.8 42.3l65.8 60.2L455.9 374l-47.5-55.8 91.9-107.9 91.9 107.9-49.7 58.4 85.1 175.8 66.7-61.2c-9.9-11.3-15.9-26.1-15.9-42.3 0-35.6 28.9-64.5 64.5-64.5s64.5 28.9 64.5 64.5-24.9 60.2-56.8 64" style="fill:#fff"/></svg>