<svg xmlns="http://www.w3.org/2000/svg" id="_图层_1" data-name="图层_1" version="1.1" viewBox="0 0 1000 1000"><defs><style>.st0{fill:#fff}</style></defs><path d="M617.6 639.3c3.5 2 7.5 3 12.1 3s8.6-1 12.1-3 6.2-4.8 8.1-8.5 2.9-7.9 2.9-12.7V616c0-4.5-1-8.4-2.9-11.8s-4.6-6-8.1-7.8c-3.5-1.9-7.5-2.8-12.1-2.8s-8.6.9-12.1 2.8-6.2 4.5-8.1 7.9-2.9 7.4-2.9 11.9v2.2c0 4.7 1 8.8 2.9 12.5q2.85 5.4 8.1 8.4M644.1 684.3q-6.15-3-14.4-3c-8.25 0-10.3 1-14.4 3s-7.3 4.8-9.6 8.5-3.4 7.9-3.4 12.7v2.2c0 5.2 1.1 9.7 3.4 13.7s5.5 7 9.7 9.2c4.1 2.1 8.9 3.2 14.3 3.2s10.1-1.1 14.3-3.3c4.1-2.2 7.4-5.3 9.7-9.3s3.4-8.6 3.4-13.8v-2.1c0-4.8-1.1-9-3.4-12.6q-3.45-5.4-9.6-8.4M612.4 414.7c8.1 0 14.1-2.8 17.9-8.3s5.7-13.5 5.7-23.8v-76.3c0-10.4-1.9-18.3-5.7-23.8s-9.8-8.3-17.9-8.3-14.1 2.8-17.9 8.3-5.7 13.5-5.7 23.8v76.3c0 10.4 1.9 18.3 5.7 23.8s9.8 8.3 17.9 8.3" class="st0"/><path d="M500 62C258.1 62 62 258.1 62 500s196.1 438 438 438 438-196.1 438-438S741.9 62 500 62M391.6 279.3c-3.7-3.1-9-4.7-15.8-4.7s-12 2.2-16.1 6.5-6.6 10.5-7.5 18.5c0 .1-41.2.1-41.2.1.9-13.4 4.1-24.9 9.6-34.4 5.5-9.6 13-16.9 22.3-21.9 9.4-5 20.2-7.5 32.5-7.5s24.6 2.2 34.1 6.5c9.4 4.3 16.6 10.7 21.5 19s7.4 18.3 7.4 30c0 9.8-1.7 19.4-5.1 28.9s-8.1 18.1-14.1 25.9l-52.4 66.2h72.8v38.7h-126v-36.2l73.1-96.1c3.3-4.3 5.9-8.7 7.7-13.3 1.8-4.5 2.7-8.8 2.7-12.7v-.3c0-5.8-1.9-10.2-5.6-13.3Zm65.2 458.2h-16.7v32.8H400v-32.8h-86v-36.9l65.6-143.3H425l-63.9 141.5h38.8v-53.9H440v53.9h16.7v38.7ZM548.7 296c0-19.1 5.4-34 16.3-44.6q16.35-15.9 47.4-15.9c31.05 0 36.6 5.3 47.5 15.8s16.3 25.4 16.3 44.7v96.8c0 19.1-5.4 34-16.3 44.6q-16.35 15.9-47.4 15.9c-31.05 0-36.6-5.3-47.5-16s-16.3-25.5-16.3-44.5zm148.6 417.2c0 11.8-2.8 22.2-8.3 31.1s-13.5 15.8-23.7 20.7-22 7.3-35.5 7.3-25.3-2.4-35.5-7.3q-15.3-7.35-23.7-20.7c-8.4-13.35-8.3-19.3-8.3-31.1v-3.5c0-10.6 2.9-20.7 8.8-30s13.7-16.5 23.4-21.2c-8.4-4.1-15.1-10-20.2-17.6s-7.6-15.7-7.6-24.3V611q0-16.65 7.8-29.4c5.2-8.4 12.6-15 22.1-19.6s20.6-7 33.2-7 23.7 2.3 33.2 7c9.5 4.6 16.9 11.2 22.1 19.6q7.8 12.6 7.8 29.4v5.6c0 8.8-2.6 17-7.8 24.5-5.2 7.6-12 13.4-20.5 17.4q14.85 7.35 23.7 21.3c6 9.3 8.9 19.3 8.9 30v3.5Z" class="st0"/></svg>