<svg xmlns="http://www.w3.org/2000/svg" id="_图层_1" data-name="图层_1" version="1.1" viewBox="0 0 1000 1000"><path d="M500 62C258.1 62 62 258.1 62 500s196.1 438 438 438 438-196.1 438-438S741.9 62 500 62m106.1 524.4 17.6-17.6c10.8-10.8 28.3-10.8 39.1 0l105.9 105.9c10.8 10.8 10.8 28.3 0 39.1l-64.9 64.9c-10.8 10.8-28.3 10.8-39.1 0L558.8 672.8c-10.8-10.8-10.8-28.3 0-39.1l17.6-17.6-39.3-39.3-205.9 205.9c-8.5 8.5-22.4 8.5-30.9 0l-80.1-80.1c-8.5-8.5-8.5-22.4 0-30.9l205.9-205.9-90.8-90.8-5.3 5.3c-5.3 5.3-13.9 5.3-19.2 0l-67.1-67.1c-5.3-5.3-5.3-13.9 0-19.2l40.2-40.2c5.3-5.3 13.9-5.3 19.2 0l67.1 67.1c5.3 5.3 5.3 13.9 0 19.2l-5.3 5.3 90.8 90.8 60.1-60.1c-6.9-41.5 5.7-85.6 37.7-117.6 42.4-42.4 105.8-50.7 156.5-25l-66 66c-15.7 16.5-15.5 42.5.7 58.7s42.2 16.4 58.7.7 66-66 66-66c25.7 50.7 17.4 114.2-25 156.5-32 32-76.1 44.6-117.6 37.7l-60.1 60.1 39.3 39.3Z" style="fill:#fff"/></svg>